# xmcd
# Copyright (C) 1995-1998 Ti Kan
#
# Track frame offsets:
#       150
#       15172
#       29475
#       46440
#       67035
#       85181
#       102202
#       115267
#       130725
#       149655
#       165033
#
# Disc length: 2401 seconds
#
# Revision: 2
# Processed by: cddbd v1.5.1PL0 Copyright (c) Steve Scherf et al.
# Submitted via: CD-Transfer v1.0
#
DISCID=89095f0b
DTITLE=Kisha - Stoffwächsu
DYEAR=2004
DGENRE=
TTITLE0=Frei Wie Ä Vogu
TTITLE1=Läb Dini Tröim
TTITLE2=Für Öich Zwöi
TTITLE3=Küss Mi Wach
TTITLE4=Troumland
TTITLE5=Ä Tag Im Bett
TTITLE6=Ig U Mi Hung
TTITLE7=I Singe Dir Es Lied
TTITLE8=Keinä Isch Wie Du
TTITLE9=Wohär Dr Wind Wäiht
TTITLE10=Überau Du
EXTD=
EXTT0=
EXTT1=
EXTT2=
EXTT3=
EXTT4=
EXTT5=
EXTT6=
EXTT7=
EXTT8=
EXTT9=
EXTT10=
PLAYORDER=
